<svg xmlns="http://www.w3.org/2000/svg" fill="none" viewBox="0 0 1920 260">
  <defs/>
  <path fill="#fff" d="M-3.16535 56.7962L59.6693 92.7018v71.8112l-62.83465 35.905L-66 164.513V92.7018l62.83465-35.9056zM63.2599-58.1033l62.8351 35.9055v71.8111L63.2599 85.5188.425293 49.6133v-71.8111L63.2599-58.1033zM63.2599 171.693l62.8351 35.906v71.811l-62.8351 35.905L.425293 279.41v-71.811L63.2599 171.693zM129.685 56.7962l62.834 35.9056v71.8112l-62.834 35.905-62.8349-35.905V92.7018l62.8349-35.9056zM196.111-58.1033l62.834 35.9055v71.8111l-62.834 35.9055-62.835-35.9055v-71.8111l62.835-35.9055zM196.111 171.693l62.834 35.906v71.811l-62.834 35.905-62.835-35.905v-71.811l62.835-35.906zM262.535 56.7962l62.835 35.9056v71.8112l-62.835 35.905-62.834-35.905V92.7018l62.834-35.9056zM328.961-58.1033l62.834 35.9055v71.8111l-62.834 35.9055-62.835-35.9055v-71.8111l62.835-35.9055zM328.961 171.693l62.834 35.906v71.811l-62.834 35.905-62.835-35.905v-71.811l62.835-35.906zM395.386 56.7962l62.835 35.9056v71.8112l-62.835 35.905-62.835-35.905V92.7018l62.835-35.9056zM461.811-58.1033l62.835 35.9055v71.8111l-62.835 35.9055-62.835-35.9055v-71.8111l62.835-35.9055zM461.811 171.693l62.835 35.906v71.811l-62.835 35.905-62.835-35.905v-71.811l62.835-35.906zM528.236 56.7962l62.835 35.9056v71.8112l-62.835 35.905-62.835-35.905V92.7018l62.835-35.9056zM594.661-58.1033l62.835 35.9055v71.8111l-62.835 35.9055-62.834-35.9055v-71.8111l62.834-35.9055zM594.661 171.693l62.835 35.906v71.811l-62.835 35.905-62.834-35.905v-71.811l62.834-35.906zM661.087 56.7962l62.834 35.9056v71.8112l-62.834 35.905-62.835-35.905V92.7018l62.835-35.9056zM727.512-58.1033l62.835 35.9055v71.8111l-62.835 35.9055-62.835-35.9055v-71.8111l62.835-35.9055zM727.512 171.693l62.835 35.906v71.811l-62.835 35.905-62.835-35.905v-71.811l62.835-35.906zM793.937 56.7962l62.835 35.9056v71.8112l-62.835 35.905-62.835-35.905V92.7018l62.835-35.9056zM860.363-58.1033l62.834 35.9055v71.8111l-62.834 35.9055-62.835-35.9055v-71.8111l62.835-35.9055zM860.363 171.693l62.834 35.906v71.811l-62.834 35.905-62.835-35.905v-71.811l62.835-35.906zM926.787 56.7962l62.835 35.9056v71.8112l-62.835 35.905-62.835-35.905V92.7018l62.835-35.9056zM993.213-58.1033l62.837 35.9055v71.8111l-62.837 35.9055-62.835-35.9055v-71.8111l62.835-35.9055zM993.213 171.693l62.837 35.906v71.811l-62.837 35.905-62.835-35.905v-71.811l62.835-35.906zM1059.64 56.7962l62.83 35.9056v71.8112l-62.83 35.905-62.837-35.905V92.7018l62.837-35.9056zM1126.06-58.1033l62.84 35.9055v71.8111l-62.84 35.9055-62.83-35.9055v-71.8111l62.83-35.9055zM1126.06 171.693l62.84 35.906v71.811l-62.84 35.905-62.83-35.905v-71.811l62.83-35.906zM1192.49 56.7962l62.83 35.9056v71.8112l-62.83 35.905-62.84-35.905V92.7018l62.84-35.9056zM1258.91-58.1033l62.84 35.9055v71.8111l-62.84 35.9055-62.83-35.9055v-71.8111l62.83-35.9055zM1258.91 171.693l62.84 35.906v71.811l-62.84 35.905-62.83-35.905v-71.811l62.83-35.906zM1325.34 56.7962l62.83 35.9056v71.8112l-62.83 35.905-62.84-35.905V92.7018l62.84-35.9056zM1391.76-58.1033l62.84 35.9055v71.8111l-62.84 35.9055-62.83-35.9055v-71.8111l62.83-35.9055zM1391.76 171.693l62.84 35.906v71.811l-62.84 35.905-62.83-35.905v-71.811l62.83-35.906zM1458.19 56.7962l62.83 35.9056v71.8112l-62.83 35.905-62.84-35.905V92.7018l62.84-35.9056zM1524.61-58.1033l62.84 35.9055v71.8111l-62.84 35.9055-62.83-35.9055v-71.8111l62.83-35.9055zM1524.61 171.693l62.84 35.906v71.811l-62.84 35.905-62.83-35.905v-71.811l62.83-35.906zM1591.04 56.7962l62.83 35.9056v71.8112l-62.83 35.905-62.84-35.905V92.7018l62.84-35.9056zM1657.47-58.1033l62.83 35.9055v71.8111l-62.83 35.9055-62.84-35.9055v-71.8111l62.84-35.9055zM1657.47 171.693l62.83 35.906v71.811l-62.83 35.905-62.84-35.905v-71.811l62.84-35.906zM1723.89 56.7962l62.84 35.9056v71.8112l-62.84 35.905-62.83-35.905V92.7018l62.83-35.9056zM1790.32-58.1033l62.83 35.9055v71.8111l-62.83 35.9055-62.84-35.9055v-71.8111l62.84-35.9055zM1790.32 171.693l62.83 35.906v71.811l-62.83 35.905-62.84-35.905v-71.811l62.84-35.906zM1856.74 56.7962l62.83 35.9056v71.8112l-62.83 35.905-62.83-35.905V92.7018l62.83-35.9056zM1923.17-58.1033L1986-22.1978v71.8111l-62.83 35.9055-62.84-35.9055v-71.8111l62.84-35.9055zM1923.17 171.693l62.83 35.906v71.811l-62.83 35.905-62.84-35.905v-71.811l62.84-35.906z"/>
  <g fill="#fff" filter="url(#filter0_d)">
    <path d="M461.811-58.1008l62.835 35.9055v71.8111l-62.835 35.9055-62.835-35.9055v-71.8111l62.835-35.9055zM1325.34 56.7961l62.83 35.9055v71.8114l-62.83 35.905-62.84-35.905V92.7016l62.84-35.9055zM1391.76-58.1008l62.84 35.9055v71.8111l-62.84 35.9055-62.83-35.9055v-71.8111l62.83-35.9055zM1723.89 56.7961l62.84 35.9055v71.8114l-62.84 35.905-62.83-35.905V92.7016l62.83-35.9055zM1790.32 171.695l62.83 35.906v71.811l-62.83 35.906-62.84-35.906v-71.811l62.84-35.906z"/>
  </g>
  <defs>
    <filter id="filter0_d" width="1739.45" height="1148.8" x="164.701" y="-93.1008" color-interpolation-filters="sRGB" filterUnits="userSpaceOnUse">
      <feFlood flood-opacity="0" result="BackgroundImageFix"/>
      <feColorMatrix in="SourceAlpha" values="0 0 0 0 0 0 0 0 0 0 0 0 0 0 0 0 0 0 127 0"/>
      <feOffset dx="8" dy="8"/>
      <feGaussianBlur stdDeviation="21.5"/>
      <feColorMatrix values="0 0 0 0 0 0 0 0 0 0 0 0 0 0 0 0 0 0 0.06 0"/>
      <feBlend in2="BackgroundImageFix" result="effect1_dropShadow"/>
      <feBlend in="SourceGraphic" in2="effect1_dropShadow" result="shape"/>
    </filter>
  </defs>
</svg>
